<svg xmlns="http://www.w3.org/2000/svg" width="80" height="80" viewBox="0 0 80 80">
  <g fill="none" fill-rule="evenodd" transform="translate(3 8)">
    <path stroke="#000000" stroke-width="3" d="M4,1.5 C2.61928813,1.5 1.5,2.61928813 1.5,4 L1.5,60 C1.5,61.3807119 2.61928813,62.5 4,62.5 L70,62.5 C71.3807119,62.5 72.5,61.3807119 72.5,60 L72.5,4 C72.5,2.61928813 71.3807119,1.5 70,1.5 L4,1.5 Z"/>
    <path fill="#000000" d="M6,2 L68,2 C70.209139,2 72,3.790861 72,6 L72,17 L2,17 L2,6 C2,3.790861 3.790861,2 6,2 Z"/>
    <path stroke="#000000" stroke-linecap="square" stroke-width="3" d="M1.5 30.5L71.0161852 30.5M2.5 45.5L72.0161852 45.5M18 2.4979514L18 62.5020832M37 2.4979514L37 62.5020832M56 2.4979514L56 62.5020832"/>
  </g>
</svg>
